<?xml version="1.0" encoding="utf-8"?>
<!-- Generator: Adobe Illustrator 23.0.6, SVG Export Plug-In . SVG Version: 6.00 Build 0)  -->
<svg version="1.1" id="Layer_1" xmlns="http://www.w3.org/2000/svg" xmlns:xlink="http://www.w3.org/1999/xlink" x="0px" y="0px"
	 viewBox="0 0 356 154.7" style="enable-background:new 0 0 356 154.7;" xml:space="preserve">
<style type="text/css">
	.st0{fill:#D81F26;}
	.st1{font-family:'MyriadPro-Bold';}
	.st2{font-size:63.8249px;}
</style>
<path class="st0" d="M81.8,55h33.1v24.2H81.8V134H58.1V0h67.5v24.2H81.8C81.8,24.2,81.8,55,81.8,55z M164.9,112.9
	c13.7,0.3,27.6,1.4,41.1,2.1v23.9c-21.6-1.4-43.2-2.7-65.3-3.2V0h24.2V112.9L164.9,112.9z M226.4,140.5c7.7,0.5,15.9,0.9,23.7,1.8V0
	h-23.7V140.5z M356,0l-30.7,73.6l30.7,81.1c-9.1-1.2-18.1-2.9-27.2-4.4l-17.4-44.7l-17.7,41.1c-8.8-1.5-17.2-2-26-3.2l31.1-70.9
	L270.8,0h26l15.9,40.6L329.6,0L356,0L356,0z"/>
<text transform="matrix(6.123234e-17 -1 1 6.123234e-17 53.4219 137.3221)" class="st1 st2">mini</text>
</svg>
